<svg width="30" height="30" viewBox="0 0 30 30" fill="none" xmlns="http://www.w3.org/2000/svg">
<path fill-rule="evenodd" clip-rule="evenodd" d="M9.27069 6.42547C10.9666 5.29232 12.9604 4.6875 15 4.6875C15.5178 4.6875 15.9375 5.10723 15.9375 5.625V14.0625H24.375C24.8928 14.0625 25.3125 14.4822 25.3125 15C25.3125 17.0396 24.7077 19.0334 23.5745 20.7293C22.4414 22.4252 20.8308 23.747 18.9464 24.5275C17.0621 25.308 14.9886 25.5123 12.9881 25.1143C10.9877 24.7164 9.1502 23.7343 7.70797 22.292C6.26574 20.8498 5.28357 19.0123 4.88566 17.0119C4.48775 15.0114 4.69197 12.9379 5.4725 11.0536C6.25303 9.16921 7.5748 7.55862 9.27069 6.42547ZM14.0625 6.61474C12.7254 6.76423 11.4386 7.23196 10.3124 7.98448C8.92484 8.9116 7.84339 10.2294 7.20477 11.7711C6.56616 13.3129 6.39907 15.0094 6.72463 16.6461C7.05019 18.2828 7.85379 19.7862 9.03379 20.9662C10.2138 22.1462 11.7172 22.9498 13.3539 23.2754C14.9906 23.6009 16.6871 23.4338 18.2289 22.7952C19.7706 22.1566 21.0884 21.0752 22.0155 19.6876C22.768 18.5614 23.2358 17.2746 23.3853 15.9375H15C14.7514 15.9375 14.5129 15.8387 14.3371 15.6629C14.1613 15.4871 14.0625 15.2486 14.0625 15V6.61474Z" fill="url(#paint0_linear_27_1940)"/>
<path d="M10.3124 7.98448C11.4386 7.23196 12.7254 6.76423 14.0625 6.61474V15C14.0625 15.2486 14.1613 15.4871 14.3371 15.6629C14.5129 15.8387 14.7514 15.9375 15 15.9375H23.3853C23.2358 17.2746 22.768 18.5614 22.0155 19.6876C21.0884 21.0752 19.7706 22.1566 18.2289 22.7952C16.6871 23.4338 14.9906 23.6009 13.3539 23.2754C11.7172 22.9498 10.2138 22.1462 9.03379 20.9662C7.85379 19.7862 7.05019 18.2828 6.72463 16.6461C6.39907 15.0094 6.56616 13.3129 7.20477 11.7711C7.84339 10.2294 8.92484 8.9116 10.3124 7.98448Z" fill="url(#paint1_linear_27_1940)"/>
<path fill-rule="evenodd" clip-rule="evenodd" d="M17.1496 2.14959C17.3254 1.97377 17.5639 1.875 17.8125 1.875C19.1668 1.875 20.5078 2.14174 21.7589 2.65999C23.0101 3.17824 24.1469 3.93786 25.1045 4.89546C26.0621 5.85306 26.8218 6.98991 27.34 8.24108C27.8583 9.49225 28.125 10.8332 28.125 12.1875C28.125 12.7053 27.7053 13.125 27.1875 13.125H17.8125C17.2947 13.125 16.875 12.7053 16.875 12.1875L16.875 2.8125C16.875 2.56386 16.9738 2.3254 17.1496 2.14959ZM18.75 3.80224L18.75 11.25H26.1978C26.1099 10.4638 25.9117 9.69234 25.6077 8.95861C25.1837 7.93492 24.5622 7.00478 23.7787 6.22129C22.9952 5.43779 22.0651 4.81629 21.0414 4.39227C20.3077 4.08835 19.5362 3.89014 18.75 3.80224Z" fill="url(#paint2_linear_27_1940)"/>
<path d="M18.75 11.25L18.75 3.80224C19.5362 3.89014 20.3077 4.08835 21.0414 4.39227C22.0651 4.81629 22.9952 5.43779 23.7787 6.22129C24.5622 7.00478 25.1837 7.93492 25.6077 8.95861C25.9117 9.69234 26.1099 10.4638 26.1978 11.25H18.75Z" fill="url(#paint3_linear_27_1940)"/>
<defs>
<linearGradient id="paint0_linear_27_1940" x1="15" y1="4.6875" x2="15" y2="25.3125" gradientUnits="userSpaceOnUse">
<stop stop-color="#0096FF"/>
<stop offset="1" stop-color="#005A99"/>
</linearGradient>
<linearGradient id="paint1_linear_27_1940" x1="15" y1="4.6875" x2="15" y2="25.3125" gradientUnits="userSpaceOnUse">
<stop stop-color="#0096FF"/>
<stop offset="1" stop-color="#005A99"/>
</linearGradient>
<linearGradient id="paint2_linear_27_1940" x1="22.5" y1="1.875" x2="22.5" y2="13.125" gradientUnits="userSpaceOnUse">
<stop stop-color="#0096FF"/>
<stop offset="1" stop-color="#005A99"/>
</linearGradient>
<linearGradient id="paint3_linear_27_1940" x1="22.5" y1="1.875" x2="22.5" y2="13.125" gradientUnits="userSpaceOnUse">
<stop stop-color="#0096FF"/>
<stop offset="1" stop-color="#005A99"/>
</linearGradient>
</defs>
</svg>
