<svg width="30" height="30" viewBox="0 0 30 30" fill="none" xmlns="http://www.w3.org/2000/svg">
<path opacity="0.2" d="M29.5501 18.6289C27.5467 26.6647 19.4073 31.5547 11.3706 29.5512C3.33761 27.5478 -1.55286 19.4084 0.451051 11.3731C2.45355 3.33637 10.5925 -1.55456 18.6268 0.448873C26.6631 2.45231 31.5531 10.5926 29.5496 18.6289H29.5501Z" fill="url(#paint0_linear_40_295)"/>
<path d="M16.5146 6.47736L15.8701 9.06232C16.3009 9.16063 16.7346 9.25988 17.1562 9.36505L17.7959 6.79669L19.4023 7.19708L18.7451 9.83478C20.7721 10.533 22.2536 11.5793 21.9629 13.5262C21.7521 14.9515 20.9621 15.6418 19.9131 15.8846C21.3536 16.635 22.086 17.7853 21.3877 19.7791C20.522 22.2546 18.4633 22.4632 15.7256 21.9451L15.0605 24.6082L13.4551 24.2078L14.1113 21.5809C13.6952 21.4775 13.2697 21.3677 12.832 21.2488L12.1738 23.8885L10.5693 23.4881L11.2344 20.8201C10.8599 20.7241 10.4785 20.6226 10.0898 20.5252L8 20.0037L8.79688 18.1658C8.79688 18.1658 9.46199 18.343 9.78809 18.4217L10.0469 18.4734C10.4434 18.5326 10.6256 18.2611 10.7002 18.076L11.75 13.866L11.9199 13.908C11.8561 13.8825 11.7977 13.8667 11.7529 13.8553L12.502 10.8504C12.5221 10.5093 12.404 10.0782 11.7539 9.91583C11.7611 9.89558 10.6162 9.63326 10.5879 9.62677L11.0146 7.91193L13.2285 8.46466L13.2266 8.47247C13.5594 8.55522 13.9027 8.63414 14.252 8.71368L14.9102 6.07697L16.5146 6.47736ZM13.3525 19.3162C14.4074 19.5785 17.591 20.5979 18.2402 18.8484L18.2949 18.6707C18.8121 16.5915 15.3228 16.0537 14.2344 15.782L13.3525 19.3162ZM14.6367 14.1639C15.5435 14.3898 18.3382 15.3113 18.791 13.4979C19.2629 11.6061 16.3434 11.1847 15.4365 10.9588L14.6367 14.1639Z" fill="url(#paint1_linear_40_295)"/>
<defs>
<linearGradient id="paint0_linear_40_295" x1="15.0003" y1="0" x2="15.0003" y2="30.0002" gradientUnits="userSpaceOnUse">
<stop stop-color="#0096FF"/>
<stop offset="1" stop-color="#005A99"/>
</linearGradient>
<linearGradient id="paint1_linear_40_295" x1="14.9997" y1="6.07697" x2="14.9997" y2="24.6082" gradientUnits="userSpaceOnUse">
<stop stop-color="#0096FF"/>
<stop offset="1" stop-color="#005A99"/>
</linearGradient>
</defs>
</svg>
