<svg width="40" height="40" viewBox="0 0 40 40" fill="none" xmlns="http://www.w3.org/2000/svg">
<g clip-path="url(#clip0_26_1670)">
<path d="M14.1668 39.1667H2.50016C2.05814 39.1667 1.63421 38.9911 1.32165 38.6785C1.00909 38.366 0.833496 37.942 0.833496 37.5V2.50001C0.833496 2.05798 1.00909 1.63406 1.32165 1.3215C1.63421 1.00894 2.05814 0.833344 2.50016 0.833344H24.6552C25.0972 0.833438 25.521 1.00909 25.8335 1.32168L32.0118 7.50001C32.3244 7.8125 32.5001 8.23635 32.5002 8.67834V14.1667" stroke="#0096FF" stroke-width="2" stroke-linecap="round" stroke-linejoin="round"/>
<path d="M5.8335 14.6183L7.6385 16.4217C7.72396 16.5072 7.82702 16.5731 7.94052 16.6148C8.05402 16.6565 8.17523 16.6731 8.29575 16.6632C8.41627 16.6534 8.53321 16.6175 8.63844 16.5579C8.74368 16.4983 8.83469 16.4166 8.90516 16.3183L12.5002 11.285" stroke="#0096FF" stroke-width="2" stroke-linecap="round" stroke-linejoin="round"/>
<path d="M17.5 14.1667H24.1667" stroke="#0096FF" stroke-width="2" stroke-linecap="round" stroke-linejoin="round"/>
<path d="M5.8335 22.9517L7.6385 24.755C7.72396 24.8405 7.82702 24.9064 7.94052 24.9481C8.05402 24.9899 8.17523 25.0064 8.29575 24.9965C8.41627 24.9867 8.53321 24.9508 8.63844 24.8912C8.74368 24.8317 8.83469 24.7499 8.90516 24.6517L12.5002 19.6183" stroke="#0096FF" stroke-width="2" stroke-linecap="round" stroke-linejoin="round"/>
<path d="M17.5 22.5H24.1667" stroke="#0096FF" stroke-width="2" stroke-linecap="round" stroke-linejoin="round"/>
<path d="M38.1332 25.1983L25.4165 37.9167L19.1665 39.1667L20.4165 32.9167L33.1332 20.1983C33.7945 19.5372 34.6914 19.1658 35.6265 19.1658C36.5616 19.1658 37.4585 19.5372 38.1198 20.1983L38.1332 20.2133C38.4609 20.5404 38.7209 20.929 38.8983 21.3567C39.0756 21.7843 39.167 22.2428 39.167 22.7058C39.167 23.1689 39.0756 23.6273 38.8983 24.055C38.7209 24.4827 38.4609 24.8712 38.1332 25.1983Z" stroke="#0096FF" stroke-width="2" stroke-linecap="round" stroke-linejoin="round"/>
</g>
<defs>
<clipPath id="clip0_26_1670">
<rect width="40" height="40" fill="white"/>
</clipPath>
</defs>
</svg>
