<svg width="30" height="30" viewBox="0 0 30 30" fill="none" xmlns="http://www.w3.org/2000/svg">
<path d="M6.84326 14.7771H5.11826C5.0872 14.7771 5.06201 14.8024 5.06201 14.8334V17.4258V20.0744V22.6668C5.06201 22.6979 5.0872 22.723 5.11826 22.723H6.84326M6.84326 14.7771H8.56826C8.59934 14.7771 8.62451 14.8024 8.62451 14.8334V17.4258V20.0744V22.6668C8.62451 22.6979 8.59934 22.723 8.56826 22.723H6.84326M6.84326 14.7771V11.4376M6.84326 22.723V26.0626" stroke="url(#paint0_linear_29_5384)" stroke-width="1.5" stroke-linecap="round"/>
<path d="M22.9692 14.7771H21.2442C21.2131 14.7771 21.188 14.8024 21.188 14.8334V17.4258V20.0744V22.6668C21.188 22.6979 21.2131 22.723 21.2442 22.723H22.9692M22.9692 14.7771H24.6942C24.7252 14.7771 24.7505 14.8024 24.7505 14.8334V17.4258V20.0744V22.6668C24.7505 22.6979 24.7252 22.723 24.6942 22.723H22.9692M22.9692 14.7771V11.4376M22.9692 22.723V26.0626" stroke="url(#paint1_linear_29_5384)" stroke-width="1.5" stroke-linecap="round"/>
<path d="M14.9063 7.31983H13.1813C13.1501 7.31983 13.125 7.34501 13.125 7.37608V10.0024V12.685V15.3114C13.125 15.3424 13.1501 15.3676 13.1813 15.3676H14.9063M14.9063 7.31983H16.6313C16.6624 7.31983 16.6875 7.34501 16.6875 7.37608V10.0024V12.685V15.3114C16.6875 15.3424 16.6624 15.3676 16.6313 15.3676H14.9063M14.9063 7.31983V3.93744M14.9063 15.3676V18.75" stroke="url(#paint2_linear_29_5384)" stroke-width="1.5" stroke-linecap="round"/>
<defs>
<linearGradient id="paint0_linear_29_5384" x1="6.84326" y1="11.4376" x2="6.84326" y2="26.0626" gradientUnits="userSpaceOnUse">
<stop stop-color="#0096FF"/>
<stop offset="1" stop-color="#005A99"/>
</linearGradient>
<linearGradient id="paint1_linear_29_5384" x1="22.9692" y1="11.4376" x2="22.9692" y2="26.0626" gradientUnits="userSpaceOnUse">
<stop stop-color="#0096FF"/>
<stop offset="1" stop-color="#005A99"/>
</linearGradient>
<linearGradient id="paint2_linear_29_5384" x1="14.9063" y1="3.93744" x2="14.9063" y2="18.75" gradientUnits="userSpaceOnUse">
<stop stop-color="#0096FF"/>
<stop offset="1" stop-color="#005A99"/>
</linearGradient>
</defs>
</svg>
