<svg width="30" height="30" viewBox="0 0 30 30" fill="none" xmlns="http://www.w3.org/2000/svg">
<path d="M27.5 3.4375H2.5C1.9875 3.4375 1.5625 3.0125 1.5625 2.5C1.5625 1.9875 1.9875 1.5625 2.5 1.5625H27.5C28.0125 1.5625 28.4375 1.9875 28.4375 2.5C28.4375 3.0125 28.0125 3.4375 27.5 3.4375Z" fill="url(#paint0_linear_27_1815)"/>
<path d="M20.8373 27.925C20.6748 28.25 20.3373 28.4375 19.9998 28.4375C19.8623 28.4375 19.7123 28.4 19.5873 28.3375L14.9998 26.05L10.4123 28.3375C10.2873 28.4 10.1373 28.4375 9.99983 28.4375C9.66233 28.4375 9.32483 28.25 9.16233 27.925C8.92483 27.45 9.11233 26.8875 9.58733 26.6625L14.0623 24.425V21.25H15.9373V24.425L20.4123 26.6625C20.8873 26.8875 21.0748 27.45 20.8373 27.925Z" fill="url(#paint1_linear_27_1815)"/>
<path d="M3.75 2.5V17.625C3.75 20 5 21.25 7.375 21.25H22.625C25 21.25 26.25 20 26.25 17.625V2.5H3.75ZM21.225 10.725L17.2875 14.0125C16.925 14.3125 16.4625 14.4375 16.025 14.3625C15.575 14.2875 15.1875 14.0125 14.95 13.6125L13.6375 11.425L9.975 14.475C9.8 14.625 9.5875 14.6875 9.375 14.6875C9.1125 14.6875 8.8375 14.575 8.65 14.35C8.3125 13.95 8.375 13.3625 8.775 13.025L12.7125 9.7375C13.075 9.4375 13.5375 9.3125 13.975 9.3875C14.425 9.4625 14.8125 9.7375 15.05 10.1375L16.3625 12.325L20.025 9.275C20.425 8.9375 21.0125 9 21.35 9.4C21.675 9.8 21.625 10.3875 21.225 10.725Z" fill="url(#paint2_linear_27_1815)"/>
<defs>
<linearGradient id="paint0_linear_27_1815" x1="15" y1="1.5625" x2="15" y2="3.4375" gradientUnits="userSpaceOnUse">
<stop stop-color="#0096FF"/>
<stop offset="1" stop-color="#005A99"/>
</linearGradient>
<linearGradient id="paint1_linear_27_1815" x1="14.9998" y1="21.25" x2="14.9998" y2="28.4375" gradientUnits="userSpaceOnUse">
<stop stop-color="#0096FF"/>
<stop offset="1" stop-color="#005A99"/>
</linearGradient>
<linearGradient id="paint2_linear_27_1815" x1="15" y1="2.5" x2="15" y2="21.25" gradientUnits="userSpaceOnUse">
<stop stop-color="#0096FF"/>
<stop offset="1" stop-color="#005A99"/>
</linearGradient>
</defs>
</svg>
