<svg width="30" height="30" viewBox="0 0 30 30" fill="none" xmlns="http://www.w3.org/2000/svg">
<g clip-path="url(#clip0_27_1969)">
<path d="M9.69238 14.375H5.94238" stroke="url(#paint0_linear_27_1969)" stroke-width="2" stroke-linecap="round" stroke-linejoin="round"/>
<path d="M11.5674 7.5C11.5394 6.51429 11.1353 5.57666 10.438 4.87938C9.74073 4.18209 8.80309 3.77801 7.81738 3.75C6.83168 3.77801 5.89404 4.18209 5.19676 4.87938C4.49948 5.57666 4.0954 6.51429 4.06738 7.5C4.08145 8.1389 4.26177 8.76311 4.59056 9.31109C4.91935 9.85908 5.38527 10.3119 5.94238 10.625V11.875H9.69238V10.625C10.2493 10.3117 10.7151 9.85884 11.0439 9.3109C11.3726 8.76296 11.5531 8.13885 11.5674 7.5Z" stroke="url(#paint1_linear_27_1969)" stroke-width="2" stroke-linecap="round" stroke-linejoin="round"/>
<path d="M7.81738 0.625V1.875" stroke="url(#paint2_linear_27_1969)" stroke-width="2" stroke-linecap="round" stroke-linejoin="round"/>
<path d="M12.6787 2.63873L11.7949 3.52248" stroke="url(#paint3_linear_27_1969)" stroke-width="2" stroke-linecap="round" stroke-linejoin="round"/>
<path d="M14.6924 6.875H13.4424" stroke="url(#paint4_linear_27_1969)" stroke-width="2" stroke-linecap="round" stroke-linejoin="round"/>
<path d="M2.95605 2.63873L3.8398 3.52248" stroke="url(#paint5_linear_27_1969)" stroke-width="2" stroke-linecap="round" stroke-linejoin="round"/>
<path d="M0.942383 6.875H2.19238" stroke="url(#paint6_linear_27_1969)" stroke-width="2" stroke-linecap="round" stroke-linejoin="round"/>
<path d="M16.5752 3.27374C19.3629 3.72132 21.8999 5.14752 23.7311 7.29649C25.5624 9.44546 26.568 12.1766 26.5677 15" stroke="url(#paint7_linear_27_1969)" stroke-width="2" stroke-linecap="round" stroke-linejoin="round"/>
<path d="M12.8198 26.7287C10.0303 26.2827 7.49123 24.8568 5.65842 22.7072C3.82562 20.5575 2.81918 17.8249 2.81982 15" stroke="url(#paint8_linear_27_1969)" stroke-width="2" stroke-linecap="round" stroke-linejoin="round"/>
<path d="M16.5674 23.125C16.5674 23.9458 16.729 24.7585 17.0431 25.5168C17.3572 26.2751 17.8176 26.9641 18.398 27.5444C18.9783 28.1248 19.6673 28.5852 20.4256 28.8992C21.1839 29.2133 21.9966 29.375 22.8174 29.375C23.6381 29.375 24.4509 29.2133 25.2092 28.8992C25.9674 28.5852 26.6564 28.1248 27.2368 27.5444C27.8172 26.9641 28.2775 26.2751 28.5916 25.5168C28.9057 24.7585 29.0674 23.9458 29.0674 23.125C29.0674 22.3042 28.9057 21.4915 28.5916 20.7332C28.2775 19.9749 27.8172 19.2859 27.2368 18.7056C26.6564 18.1252 25.9674 17.6648 25.2092 17.3508C24.4509 17.0367 23.6381 16.875 22.8174 16.875C21.9966 16.875 21.1839 17.0367 20.4256 17.3508C19.6673 17.6648 18.9783 18.1252 18.398 18.7056C17.8176 19.2859 17.3572 19.9749 17.0431 20.7332C16.729 21.4915 16.5674 22.3042 16.5674 23.125Z" stroke="url(#paint9_linear_27_1969)" stroke-width="2" stroke-linecap="round" stroke-linejoin="round"/>
<path d="M22.8174 25.625V26.875" stroke="url(#paint10_linear_27_1969)" stroke-width="2" stroke-linecap="round" stroke-linejoin="round"/>
<path d="M22.8174 19.375V20.625" stroke="url(#paint11_linear_27_1969)" stroke-width="2" stroke-linecap="round" stroke-linejoin="round"/>
<path d="M20.3174 25.625H24.0674C24.3989 25.625 24.7168 25.4933 24.9513 25.2589C25.1857 25.0245 25.3174 24.7065 25.3174 24.375C25.3174 24.0435 25.1857 23.7255 24.9513 23.4911C24.7168 23.2567 24.3989 23.125 24.0674 23.125H21.5674C21.2359 23.125 20.9179 22.9933 20.6835 22.7589C20.4491 22.5245 20.3174 22.2065 20.3174 21.875C20.3174 21.5435 20.4491 21.2255 20.6835 20.9911C20.9179 20.7567 21.2359 20.625 21.5674 20.625H25.3174" stroke="url(#paint12_linear_27_1969)" stroke-width="2" stroke-linecap="round" stroke-linejoin="round"/>
<path d="M11.5674 23.125L13.4424 26.875L10.3174 28.75" stroke="url(#paint13_linear_27_1969)" stroke-width="2" stroke-linecap="round" stroke-linejoin="round"/>
<path d="M17.8174 6.25L16.5674 3.125L19.0674 1.25" stroke="url(#paint14_linear_27_1969)" stroke-width="2" stroke-linecap="round" stroke-linejoin="round"/>
</g>
<defs>
<linearGradient id="paint0_linear_27_1969" x1="7.81738" y1="14.375" x2="7.81738" y2="15.375" gradientUnits="userSpaceOnUse">
<stop stop-color="#0096FF"/>
<stop offset="1" stop-color="#005A99"/>
</linearGradient>
<linearGradient id="paint1_linear_27_1969" x1="7.81738" y1="3.75" x2="7.81738" y2="11.875" gradientUnits="userSpaceOnUse">
<stop stop-color="#0096FF"/>
<stop offset="1" stop-color="#005A99"/>
</linearGradient>
<linearGradient id="paint2_linear_27_1969" x1="8.31738" y1="0.625" x2="8.31738" y2="1.875" gradientUnits="userSpaceOnUse">
<stop stop-color="#0096FF"/>
<stop offset="1" stop-color="#005A99"/>
</linearGradient>
<linearGradient id="paint3_linear_27_1969" x1="12.2368" y1="2.63873" x2="12.2368" y2="3.52248" gradientUnits="userSpaceOnUse">
<stop stop-color="#0096FF"/>
<stop offset="1" stop-color="#005A99"/>
</linearGradient>
<linearGradient id="paint4_linear_27_1969" x1="14.0674" y1="6.875" x2="14.0674" y2="7.875" gradientUnits="userSpaceOnUse">
<stop stop-color="#0096FF"/>
<stop offset="1" stop-color="#005A99"/>
</linearGradient>
<linearGradient id="paint5_linear_27_1969" x1="3.39793" y1="2.63873" x2="3.39793" y2="3.52248" gradientUnits="userSpaceOnUse">
<stop stop-color="#0096FF"/>
<stop offset="1" stop-color="#005A99"/>
</linearGradient>
<linearGradient id="paint6_linear_27_1969" x1="1.56738" y1="6.875" x2="1.56738" y2="7.875" gradientUnits="userSpaceOnUse">
<stop stop-color="#0096FF"/>
<stop offset="1" stop-color="#005A99"/>
</linearGradient>
<linearGradient id="paint7_linear_27_1969" x1="21.5714" y1="3.27374" x2="21.5714" y2="15" gradientUnits="userSpaceOnUse">
<stop stop-color="#0096FF"/>
<stop offset="1" stop-color="#005A99"/>
</linearGradient>
<linearGradient id="paint8_linear_27_1969" x1="7.81982" y1="15" x2="7.81982" y2="26.7287" gradientUnits="userSpaceOnUse">
<stop stop-color="#0096FF"/>
<stop offset="1" stop-color="#005A99"/>
</linearGradient>
<linearGradient id="paint9_linear_27_1969" x1="22.8174" y1="16.875" x2="22.8174" y2="29.375" gradientUnits="userSpaceOnUse">
<stop stop-color="#0096FF"/>
<stop offset="1" stop-color="#005A99"/>
</linearGradient>
<linearGradient id="paint10_linear_27_1969" x1="23.3174" y1="25.625" x2="23.3174" y2="26.875" gradientUnits="userSpaceOnUse">
<stop stop-color="#0096FF"/>
<stop offset="1" stop-color="#005A99"/>
</linearGradient>
<linearGradient id="paint11_linear_27_1969" x1="23.3174" y1="19.375" x2="23.3174" y2="20.625" gradientUnits="userSpaceOnUse">
<stop stop-color="#0096FF"/>
<stop offset="1" stop-color="#005A99"/>
</linearGradient>
<linearGradient id="paint12_linear_27_1969" x1="22.8174" y1="20.625" x2="22.8174" y2="25.625" gradientUnits="userSpaceOnUse">
<stop stop-color="#0096FF"/>
<stop offset="1" stop-color="#005A99"/>
</linearGradient>
<linearGradient id="paint13_linear_27_1969" x1="11.8799" y1="23.125" x2="11.8799" y2="28.75" gradientUnits="userSpaceOnUse">
<stop stop-color="#0096FF"/>
<stop offset="1" stop-color="#005A99"/>
</linearGradient>
<linearGradient id="paint14_linear_27_1969" x1="17.8174" y1="1.25" x2="17.8174" y2="6.25" gradientUnits="userSpaceOnUse">
<stop stop-color="#0096FF"/>
<stop offset="1" stop-color="#005A99"/>
</linearGradient>
<clipPath id="clip0_27_1969">
<rect width="30" height="30" fill="white"/>
</clipPath>
</defs>
</svg>
