<svg width="941" height="299" viewBox="0 0 941 299" fill="none" xmlns="http://www.w3.org/2000/svg">
<g clip-path="url(#clip0_1_27)">
<path d="M24.291 53.9705C2.31204 83.2995 -5.88196 135.649 26.679 161.522C67.355 193.842 133.683 154.689 132.966 151.225C133.496 153.784 64.014 160.982 51.758 146.648C25.749 116.228 93.255 35.3615 76.838 23.0785C68.046 16.5005 39.91 33.1295 24.291 53.9705Z" fill="white" stroke="white" stroke-miterlimit="10"/>
<path d="M247.402 245.03C269.381 215.701 277.575 163.351 245.014 137.478C204.338 105.158 138.01 144.311 138.727 147.775C139.399 151.019 200.109 129.164 219.935 152.352C245.945 182.772 178.439 263.638 194.856 275.921C203.648 282.499 231.783 265.87 247.402 245.03Z" fill="white" stroke="white" stroke-miterlimit="10"/>
<path d="M33.003 253.509C63.021 275.337 117.426 284.573 145.285 254.074C180.086 215.974 140.994 151.411 137.36 152.006C133.958 152.563 155.15 211.287 130.431 229.66C98.001 253.764 15.416 186.966 2.16501 202.363C-4.93199 210.609 11.672 237.996 33.004 253.508L33.003 253.509Z" fill="white" stroke="white" stroke-miterlimit="10"/>
<path d="M234.339 42.1195C203.572 21.2695 148.874 13.7895 122.101 45.1685C88.655 84.3665 129.989 147.636 133.6 146.924C136.981 146.258 113.741 88.2485 137.803 69.0895C169.369 43.9555 254.25 108.059 266.954 92.2425C273.758 83.7725 256.203 56.9355 234.339 42.1185V42.1195Z" fill="white" stroke="white" stroke-miterlimit="10"/>
</g>
<path d="M382.814 92.75C378.264 92.75 374.689 89.175 374.689 84.625C374.689 80.075 378.264 76.5 382.814 76.5C387.364 76.5 390.939 80.075 390.939 84.625C390.939 89.175 387.364 92.75 382.814 92.75ZM415.314 92.75C410.764 92.75 407.189 89.175 407.189 84.625C407.189 80.075 410.764 76.5 415.314 76.5C419.864 76.5 423.439 80.075 423.439 84.625C423.439 89.175 419.864 92.75 415.314 92.75ZM399.064 92.75C394.514 92.75 390.939 89.175 390.939 84.625C390.939 80.075 394.514 76.5 399.064 76.5C403.614 76.5 407.189 80.075 407.189 84.625C407.189 89.175 403.614 92.75 399.064 92.75ZM431.564 92.75C427.014 92.75 423.439 89.175 423.439 84.625C423.439 80.075 427.014 76.5 431.564 76.5C436.114 76.5 439.689 80.075 439.689 84.625C439.689 89.175 436.114 92.75 431.564 92.75ZM366.564 92.75C362.014 92.75 358.439 89.175 358.439 84.625C358.439 80.075 362.014 76.5 366.564 76.5C371.114 76.5 374.689 80.075 374.689 84.625C374.689 89.175 371.114 92.75 366.564 92.75ZM382.814 109C378.264 109 374.689 105.425 374.689 100.875C374.689 96.325 378.264 92.75 382.814 92.75C387.364 92.75 390.939 96.325 390.939 100.875C390.939 105.425 387.364 109 382.814 109ZM350.314 109C345.764 109 342.189 105.425 342.189 100.875C342.189 96.325 345.764 92.75 350.314 92.75C354.864 92.75 358.439 96.325 358.439 100.875C358.439 105.425 354.864 109 350.314 109ZM399.064 109C394.514 109 390.939 105.425 390.939 100.875C390.939 96.325 394.514 92.75 399.064 92.75C403.614 92.75 407.189 96.325 407.189 100.875C407.189 105.425 403.614 109 399.064 109ZM431.564 109C427.014 109 423.439 105.425 423.439 100.875C423.439 96.325 427.014 92.75 431.564 92.75C436.114 92.75 439.689 96.325 439.689 100.875C439.689 105.425 436.114 109 431.564 109ZM415.314 109C410.764 109 407.189 105.425 407.189 100.875C407.189 96.325 410.764 92.75 415.314 92.75C419.864 92.75 423.439 96.325 423.439 100.875C423.439 105.425 419.864 109 415.314 109ZM366.564 109C362.014 109 358.439 105.425 358.439 100.875C358.439 96.325 362.014 92.75 366.564 92.75C371.114 92.75 374.689 96.325 374.689 100.875C374.689 105.425 371.114 109 366.564 109ZM447.814 109C443.264 109 439.689 105.425 439.689 100.875C439.689 96.325 443.264 92.75 447.814 92.75C452.364 92.75 455.939 96.325 455.939 100.875C455.939 105.425 452.364 109 447.814 109ZM366.564 125.25C362.014 125.25 358.439 121.675 358.439 117.125C358.439 112.575 362.014 109 366.564 109C371.114 109 374.689 112.575 374.689 117.125C374.689 121.675 371.114 125.25 366.564 125.25ZM431.564 125.25C427.014 125.25 423.439 121.675 423.439 117.125C423.439 112.575 427.014 109 431.564 109C436.114 109 439.689 112.575 439.689 117.125C439.689 121.675 436.114 125.25 431.564 125.25ZM350.314 125.25C345.764 125.25 342.189 121.675 342.189 117.125C342.189 112.575 345.764 109 350.314 109C354.864 109 358.439 112.575 358.439 117.125C358.439 121.675 354.864 125.25 350.314 125.25ZM447.814 125.25C443.264 125.25 439.689 121.675 439.689 117.125C439.689 112.575 443.264 109 447.814 109C452.364 109 455.939 112.575 455.939 117.125C455.939 121.675 452.364 125.25 447.814 125.25ZM464.064 125.25C459.514 125.25 455.939 121.675 455.939 117.125C455.939 112.575 459.514 109 464.064 109C468.614 109 472.189 112.575 472.189 117.125C472.189 121.675 468.614 125.25 464.064 125.25ZM334.064 125.25C329.514 125.25 325.939 121.675 325.939 117.125C325.939 112.575 329.514 109 334.064 109C338.614 109 342.189 112.575 342.189 117.125C342.189 121.675 338.614 125.25 334.064 125.25ZM350.314 141.5C345.764 141.5 342.189 137.925 342.189 133.375C342.189 128.825 345.764 125.25 350.314 125.25C354.864 125.25 358.439 128.825 358.439 133.375C358.439 137.925 354.864 141.5 350.314 141.5ZM334.064 141.5C329.514 141.5 325.939 137.925 325.939 133.375C325.939 128.825 329.514 125.25 334.064 125.25C338.614 125.25 342.189 128.825 342.189 133.375C342.189 137.925 338.614 141.5 334.064 141.5ZM447.814 141.5C443.264 141.5 439.689 137.925 439.689 133.375C439.689 128.825 443.264 125.25 447.814 125.25C452.364 125.25 455.939 128.825 455.939 133.375C455.939 137.925 452.364 141.5 447.814 141.5ZM464.064 141.5C459.514 141.5 455.939 137.925 455.939 133.375C455.939 128.825 459.514 125.25 464.064 125.25C468.614 125.25 472.189 128.825 472.189 133.375C472.189 137.925 468.614 141.5 464.064 141.5ZM334.064 157.75C329.514 157.75 325.939 154.175 325.939 149.625C325.939 145.075 329.514 141.5 334.064 141.5C338.614 141.5 342.189 145.075 342.189 149.625C342.189 154.175 338.614 157.75 334.064 157.75ZM350.314 157.75C345.764 157.75 342.189 154.175 342.189 149.625C342.189 145.075 345.764 141.5 350.314 141.5C354.864 141.5 358.439 145.075 358.439 149.625C358.439 154.175 354.864 157.75 350.314 157.75ZM464.064 157.75C459.514 157.75 455.939 154.175 455.939 149.625C455.939 145.075 459.514 141.5 464.064 141.5C468.614 141.5 472.189 145.075 472.189 149.625C472.189 154.175 468.614 157.75 464.064 157.75ZM447.814 157.75C443.264 157.75 439.689 154.175 439.689 149.625C439.689 145.075 443.264 141.5 447.814 141.5C452.364 141.5 455.939 145.075 455.939 149.625C455.939 154.175 452.364 157.75 447.814 157.75ZM447.814 174C443.264 174 439.689 170.425 439.689 165.875C439.689 161.325 443.264 157.75 447.814 157.75C452.364 157.75 455.939 161.325 455.939 165.875C455.939 170.425 452.364 174 447.814 174ZM334.064 174C329.514 174 325.939 170.425 325.939 165.875C325.939 161.325 329.514 157.75 334.064 157.75C338.614 157.75 342.189 161.325 342.189 165.875C342.189 170.425 338.614 174 334.064 174ZM464.064 174C459.514 174 455.939 170.425 455.939 165.875C455.939 161.325 459.514 157.75 464.064 157.75C468.614 157.75 472.189 161.325 472.189 165.875C472.189 170.425 468.614 174 464.064 174ZM350.314 174C345.764 174 342.189 170.425 342.189 165.875C342.189 161.325 345.764 157.75 350.314 157.75C354.864 157.75 358.439 161.325 358.439 165.875C358.439 170.425 354.864 174 350.314 174ZM447.814 190.25C443.264 190.25 439.689 186.675 439.689 182.125C439.689 177.575 443.264 174 447.814 174C452.364 174 455.939 177.575 455.939 182.125C455.939 186.675 452.364 190.25 447.814 190.25ZM350.314 190.25C345.764 190.25 342.189 186.675 342.189 182.125C342.189 177.575 345.764 174 350.314 174C354.864 174 358.439 177.575 358.439 182.125C358.439 186.675 354.864 190.25 350.314 190.25ZM334.064 190.25C329.514 190.25 325.939 186.675 325.939 182.125C325.939 177.575 329.514 174 334.064 174C338.614 174 342.189 177.575 342.189 182.125C342.189 186.675 338.614 190.25 334.064 190.25ZM464.064 190.25C459.514 190.25 455.939 186.675 455.939 182.125C455.939 177.575 459.514 174 464.064 174C468.614 174 472.189 177.575 472.189 182.125C472.189 186.675 468.614 190.25 464.064 190.25ZM366.564 206.5C362.014 206.5 358.439 202.925 358.439 198.375C358.439 193.825 362.014 190.25 366.564 190.25C371.114 190.25 374.689 193.825 374.689 198.375C374.689 202.925 371.114 206.5 366.564 206.5ZM431.564 206.5C427.014 206.5 423.439 202.925 423.439 198.375C423.439 193.825 427.014 190.25 431.564 190.25C436.114 190.25 439.689 193.825 439.689 198.375C439.689 202.925 436.114 206.5 431.564 206.5ZM447.814 206.5C443.264 206.5 439.689 202.925 439.689 198.375C439.689 193.825 443.264 190.25 447.814 190.25C452.364 190.25 455.939 193.825 455.939 198.375C455.939 202.925 452.364 206.5 447.814 206.5ZM464.064 206.5C459.514 206.5 455.939 202.925 455.939 198.375C455.939 193.825 459.514 190.25 464.064 190.25C468.614 190.25 472.189 193.825 472.189 198.375C472.189 202.925 468.614 206.5 464.064 206.5ZM334.064 206.5C329.514 206.5 325.939 202.925 325.939 198.375C325.939 193.825 329.514 190.25 334.064 190.25C338.614 190.25 342.189 193.825 342.189 198.375C342.189 202.925 338.614 206.5 334.064 206.5ZM350.314 206.5C345.764 206.5 342.189 202.925 342.189 198.375C342.189 193.825 345.764 190.25 350.314 190.25C354.864 190.25 358.439 193.825 358.439 198.375C358.439 202.925 354.864 206.5 350.314 206.5ZM350.314 222.75C345.764 222.75 342.189 219.175 342.189 214.625C342.189 210.075 345.764 206.5 350.314 206.5C354.864 206.5 358.439 210.075 358.439 214.625C358.439 219.175 354.864 222.75 350.314 222.75ZM447.814 222.75C443.264 222.75 439.689 219.175 439.689 214.625C439.689 210.075 443.264 206.5 447.814 206.5C452.364 206.5 455.939 210.075 455.939 214.625C455.939 219.175 452.364 222.75 447.814 222.75ZM431.564 222.75C427.014 222.75 423.439 219.175 423.439 214.625C423.439 210.075 427.014 206.5 431.564 206.5C436.114 206.5 439.689 210.075 439.689 214.625C439.689 219.175 436.114 222.75 431.564 222.75ZM415.314 222.75C410.764 222.75 407.189 219.175 407.189 214.625C407.189 210.075 410.764 206.5 415.314 206.5C419.864 206.5 423.439 210.075 423.439 214.625C423.439 219.175 419.864 222.75 415.314 222.75ZM382.814 222.75C378.264 222.75 374.689 219.175 374.689 214.625C374.689 210.075 378.264 206.5 382.814 206.5C387.364 206.5 390.939 210.075 390.939 214.625C390.939 219.175 387.364 222.75 382.814 222.75ZM366.564 222.75C362.014 222.75 358.439 219.175 358.439 214.625C358.439 210.075 362.014 206.5 366.564 206.5C371.114 206.5 374.689 210.075 374.689 214.625C374.689 219.175 371.114 222.75 366.564 222.75ZM399.064 222.75C394.514 222.75 390.939 219.175 390.939 214.625C390.939 210.075 394.514 206.5 399.064 206.5C403.614 206.5 407.189 210.075 407.189 214.625C407.189 219.175 403.614 222.75 399.064 222.75ZM431.564 239C427.014 239 423.439 235.425 423.439 230.875C423.439 226.325 427.014 222.75 431.564 222.75C436.114 222.75 439.689 226.325 439.689 230.875C439.689 235.425 436.114 239 431.564 239ZM415.314 239C410.764 239 407.189 235.425 407.189 230.875C407.189 226.325 410.764 222.75 415.314 222.75C419.864 222.75 423.439 226.325 423.439 230.875C423.439 235.425 419.864 239 415.314 239ZM382.814 239C378.264 239 374.689 235.425 374.689 230.875C374.689 226.325 378.264 222.75 382.814 222.75C387.364 222.75 390.939 226.325 390.939 230.875C390.939 235.425 387.364 239 382.814 239ZM366.564 239C362.014 239 358.439 235.425 358.439 230.875C358.439 226.325 362.014 222.75 366.564 222.75C371.114 222.75 374.689 226.325 374.689 230.875C374.689 235.425 371.114 239 366.564 239ZM399.064 239C394.514 239 390.939 235.425 390.939 230.875C390.939 226.325 394.514 222.75 399.064 222.75C403.614 222.75 407.189 226.325 407.189 230.875C407.189 235.425 403.614 239 399.064 239ZM512.814 92.75C508.264 92.75 504.689 89.175 504.689 84.625C504.689 80.075 508.264 76.5 512.814 76.5C517.364 76.5 520.939 80.075 520.939 84.625C520.939 89.175 517.364 92.75 512.814 92.75ZM496.564 92.75C492.014 92.75 488.439 89.175 488.439 84.625C488.439 80.075 492.014 76.5 496.564 76.5C501.114 76.5 504.689 80.075 504.689 84.625C504.689 89.175 501.114 92.75 496.564 92.75ZM610.314 92.75C605.764 92.75 602.189 89.175 602.189 84.625C602.189 80.075 605.764 76.5 610.314 76.5C614.864 76.5 618.439 80.075 618.439 84.625C618.439 89.175 614.864 92.75 610.314 92.75ZM626.564 92.75C622.014 92.75 618.439 89.175 618.439 84.625C618.439 80.075 622.014 76.5 626.564 76.5C631.114 76.5 634.689 80.075 634.689 84.625C634.689 89.175 631.114 92.75 626.564 92.75ZM626.564 109C622.014 109 618.439 105.425 618.439 100.875C618.439 96.325 622.014 92.75 626.564 92.75C631.114 92.75 634.689 96.325 634.689 100.875C634.689 105.425 631.114 109 626.564 109ZM594.064 109C589.514 109 585.939 105.425 585.939 100.875C585.939 96.325 589.514 92.75 594.064 92.75C598.614 92.75 602.189 96.325 602.189 100.875C602.189 105.425 598.614 109 594.064 109ZM529.064 109C524.514 109 520.939 105.425 520.939 100.875C520.939 96.325 524.514 92.75 529.064 92.75C533.614 92.75 537.189 96.325 537.189 100.875C537.189 105.425 533.614 109 529.064 109ZM512.814 109C508.264 109 504.689 105.425 504.689 100.875C504.689 96.325 508.264 92.75 512.814 92.75C517.364 92.75 520.939 96.325 520.939 100.875C520.939 105.425 517.364 109 512.814 109ZM496.564 109C492.014 109 488.439 105.425 488.439 100.875C488.439 96.325 492.014 92.75 496.564 92.75C501.114 92.75 504.689 96.325 504.689 100.875C504.689 105.425 501.114 109 496.564 109ZM610.314 109C605.764 109 602.189 105.425 602.189 100.875C602.189 96.325 605.764 92.75 610.314 92.75C614.864 92.75 618.439 96.325 618.439 100.875C618.439 105.425 614.864 109 610.314 109ZM529.064 125.25C524.514 125.25 520.939 121.675 520.939 117.125C520.939 112.575 524.514 109 529.064 109C533.614 109 537.189 112.575 537.189 117.125C537.189 121.675 533.614 125.25 529.064 125.25ZM594.064 125.25C589.514 125.25 585.939 121.675 585.939 117.125C585.939 112.575 589.514 109 594.064 109C598.614 109 602.189 112.575 602.189 117.125C602.189 121.675 598.614 125.25 594.064 125.25ZM512.814 125.25C508.264 125.25 504.689 121.675 504.689 117.125C504.689 112.575 508.264 109 512.814 109C517.364 109 520.939 112.575 520.939 117.125C520.939 121.675 517.364 125.25 512.814 125.25ZM610.314 125.25C605.764 125.25 602.189 121.675 602.189 117.125C602.189 112.575 605.764 109 610.314 109C614.864 109 618.439 112.575 618.439 117.125C618.439 121.675 614.864 125.25 610.314 125.25ZM577.814 141.5C573.264 141.5 569.689 137.925 569.689 133.375C569.689 128.825 573.264 125.25 577.814 125.25C582.364 125.25 585.939 128.825 585.939 133.375C585.939 137.925 582.364 141.5 577.814 141.5ZM545.314 141.5C540.764 141.5 537.189 137.925 537.189 133.375C537.189 128.825 540.764 125.25 545.314 125.25C549.864 125.25 553.439 128.825 553.439 133.375C553.439 137.925 549.864 141.5 545.314 141.5ZM529.064 141.5C524.514 141.5 520.939 137.925 520.939 133.375C520.939 128.825 524.514 125.25 529.064 125.25C533.614 125.25 537.189 128.825 537.189 133.375C537.189 137.925 533.614 141.5 529.064 141.5ZM594.064 141.5C589.514 141.5 585.939 137.925 585.939 133.375C585.939 128.825 589.514 125.25 594.064 125.25C598.614 125.25 602.189 128.825 602.189 133.375C602.189 137.925 598.614 141.5 594.064 141.5ZM512.814 141.5C508.264 141.5 504.689 137.925 504.689 133.375C504.689 128.825 508.264 125.25 512.814 125.25C517.364 125.25 520.939 128.825 520.939 133.375C520.939 137.925 517.364 141.5 512.814 141.5ZM610.314 141.5C605.764 141.5 602.189 137.925 602.189 133.375C602.189 128.825 605.764 125.25 610.314 125.25C614.864 125.25 618.439 128.825 618.439 133.375C618.439 137.925 614.864 141.5 610.314 141.5ZM561.564 157.75C557.014 157.75 553.439 154.175 553.439 149.625C553.439 145.075 557.014 141.5 561.564 141.5C566.114 141.5 569.689 145.075 569.689 149.625C569.689 154.175 566.114 157.75 561.564 157.75ZM545.314 157.75C540.764 157.75 537.189 154.175 537.189 149.625C537.189 145.075 540.764 141.5 545.314 141.5C549.864 141.5 553.439 145.075 553.439 149.625C553.439 154.175 549.864 157.75 545.314 157.75ZM577.814 157.75C573.264 157.75 569.689 154.175 569.689 149.625C569.689 145.075 573.264 141.5 577.814 141.5C582.364 141.5 585.939 145.075 585.939 149.625C585.939 154.175 582.364 157.75 577.814 157.75ZM594.064 157.75C589.514 157.75 585.939 154.175 585.939 149.625C585.939 145.075 589.514 141.5 594.064 141.5C598.614 141.5 602.189 145.075 602.189 149.625C602.189 154.175 598.614 157.75 594.064 157.75ZM529.064 157.75C524.514 157.75 520.939 154.175 520.939 149.625C520.939 145.075 524.514 141.5 529.064 141.5C533.614 141.5 537.189 145.075 537.189 149.625C537.189 154.175 533.614 157.75 529.064 157.75ZM561.564 174C557.014 174 553.439 170.425 553.439 165.875C553.439 161.325 557.014 157.75 561.564 157.75C566.114 157.75 569.689 161.325 569.689 165.875C569.689 170.425 566.114 174 561.564 174ZM594.064 174C589.514 174 585.939 170.425 585.939 165.875C585.939 161.325 589.514 157.75 594.064 157.75C598.614 157.75 602.189 161.325 602.189 165.875C602.189 170.425 598.614 174 594.064 174ZM529.064 174C524.514 174 520.939 170.425 520.939 165.875C520.939 161.325 524.514 157.75 529.064 157.75C533.614 157.75 537.189 161.325 537.189 165.875C537.189 170.425 533.614 174 529.064 174ZM577.814 174C573.264 174 569.689 170.425 569.689 165.875C569.689 161.325 573.264 157.75 577.814 157.75C582.364 157.75 585.939 161.325 585.939 165.875C585.939 170.425 582.364 174 577.814 174ZM545.314 174C540.764 174 537.189 170.425 537.189 165.875C537.189 161.325 540.764 157.75 545.314 157.75C549.864 157.75 553.439 161.325 553.439 165.875C553.439 170.425 549.864 174 545.314 174ZM610.314 190.25C605.764 190.25 602.189 186.675 602.189 182.125C602.189 177.575 605.764 174 610.314 174C614.864 174 618.439 177.575 618.439 182.125C618.439 186.675 614.864 190.25 610.314 190.25ZM512.814 190.25C508.264 190.25 504.689 186.675 504.689 182.125C504.689 177.575 508.264 174 512.814 174C517.364 174 520.939 177.575 520.939 182.125C520.939 186.675 517.364 190.25 512.814 190.25ZM594.064 190.25C589.514 190.25 585.939 186.675 585.939 182.125C585.939 177.575 589.514 174 594.064 174C598.614 174 602.189 177.575 602.189 182.125C602.189 186.675 598.614 190.25 594.064 190.25ZM529.064 190.25C524.514 190.25 520.939 186.675 520.939 182.125C520.939 177.575 524.514 174 529.064 174C533.614 174 537.189 177.575 537.189 182.125C537.189 186.675 533.614 190.25 529.064 190.25ZM545.314 190.25C540.764 190.25 537.189 186.675 537.189 182.125C537.189 177.575 540.764 174 545.314 174C549.864 174 553.439 177.575 553.439 182.125C553.439 186.675 549.864 190.25 545.314 190.25ZM577.814 190.25C573.264 190.25 569.689 186.675 569.689 182.125C569.689 177.575 573.264 174 577.814 174C582.364 174 585.939 177.575 585.939 182.125C585.939 186.675 582.364 190.25 577.814 190.25ZM610.314 206.5C605.764 206.5 602.189 202.925 602.189 198.375C602.189 193.825 605.764 190.25 610.314 190.25C614.864 190.25 618.439 193.825 618.439 198.375C618.439 202.925 614.864 206.5 610.314 206.5ZM512.814 206.5C508.264 206.5 504.689 202.925 504.689 198.375C504.689 193.825 508.264 190.25 512.814 190.25C517.364 190.25 520.939 193.825 520.939 198.375C520.939 202.925 517.364 206.5 512.814 206.5ZM594.064 206.5C589.514 206.5 585.939 202.925 585.939 198.375C585.939 193.825 589.514 190.25 594.064 190.25C598.614 190.25 602.189 193.825 602.189 198.375C602.189 202.925 598.614 206.5 594.064 206.5ZM529.064 206.5C524.514 206.5 520.939 202.925 520.939 198.375C520.939 193.825 524.514 190.25 529.064 190.25C533.614 190.25 537.189 193.825 537.189 198.375C537.189 202.925 533.614 206.5 529.064 206.5ZM626.564 222.75C622.014 222.75 618.439 219.175 618.439 214.625C618.439 210.075 622.014 206.5 626.564 206.5C631.114 206.5 634.689 210.075 634.689 214.625C634.689 219.175 631.114 222.75 626.564 222.75ZM496.564 222.75C492.014 222.75 488.439 219.175 488.439 214.625C488.439 210.075 492.014 206.5 496.564 206.5C501.114 206.5 504.689 210.075 504.689 214.625C504.689 219.175 501.114 222.75 496.564 222.75ZM610.314 222.75C605.764 222.75 602.189 219.175 602.189 214.625C602.189 210.075 605.764 206.5 610.314 206.5C614.864 206.5 618.439 210.075 618.439 214.625C618.439 219.175 614.864 222.75 610.314 222.75ZM529.064 222.75C524.514 222.75 520.939 219.175 520.939 214.625C520.939 210.075 524.514 206.5 529.064 206.5C533.614 206.5 537.189 210.075 537.189 214.625C537.189 219.175 533.614 222.75 529.064 222.75ZM594.064 222.75C589.514 222.75 585.939 219.175 585.939 214.625C585.939 210.075 589.514 206.5 594.064 206.5C598.614 206.5 602.189 210.075 602.189 214.625C602.189 219.175 598.614 222.75 594.064 222.75ZM512.814 222.75C508.264 222.75 504.689 219.175 504.689 214.625C504.689 210.075 508.264 206.5 512.814 206.5C517.364 206.5 520.939 210.075 520.939 214.625C520.939 219.175 517.364 222.75 512.814 222.75ZM626.564 239C622.014 239 618.439 235.425 618.439 230.875C618.439 226.325 622.014 222.75 626.564 222.75C631.114 222.75 634.689 226.325 634.689 230.875C634.689 235.425 631.114 239 626.564 239ZM496.564 239C492.014 239 488.439 235.425 488.439 230.875C488.439 226.325 492.014 222.75 496.564 222.75C501.114 222.75 504.689 226.325 504.689 230.875C504.689 235.425 501.114 239 496.564 239ZM610.314 239C605.764 239 602.189 235.425 602.189 230.875C602.189 226.325 605.764 222.75 610.314 222.75C614.864 222.75 618.439 226.325 618.439 230.875C618.439 235.425 614.864 239 610.314 239ZM512.814 239C508.264 239 504.689 235.425 504.689 230.875C504.689 226.325 508.264 222.75 512.814 222.75C517.364 222.75 520.939 226.325 520.939 230.875C520.939 235.425 517.364 239 512.814 239ZM691.564 92.75C687.014 92.75 683.439 89.175 683.439 84.625C683.439 80.075 687.014 76.5 691.564 76.5C696.114 76.5 699.689 80.075 699.689 84.625C699.689 89.175 696.114 92.75 691.564 92.75ZM707.814 92.75C703.264 92.75 699.689 89.175 699.689 84.625C699.689 80.075 703.264 76.5 707.814 76.5C712.364 76.5 715.939 80.075 715.939 84.625C715.939 89.175 712.364 92.75 707.814 92.75ZM724.064 92.75C719.514 92.75 715.939 89.175 715.939 84.625C715.939 80.075 719.514 76.5 724.064 76.5C728.614 76.5 732.189 80.075 732.189 84.625C732.189 89.175 728.614 92.75 724.064 92.75ZM740.314 92.75C735.764 92.75 732.189 89.175 732.189 84.625C732.189 80.075 735.764 76.5 740.314 76.5C744.864 76.5 748.439 80.075 748.439 84.625C748.439 89.175 744.864 92.75 740.314 92.75ZM675.314 92.75C670.764 92.75 667.189 89.175 667.189 84.625C667.189 80.075 670.764 76.5 675.314 76.5C679.864 76.5 683.439 80.075 683.439 84.625C683.439 89.175 679.864 92.75 675.314 92.75ZM659.064 92.75C654.514 92.75 650.939 89.175 650.939 84.625C650.939 80.075 654.514 76.5 659.064 76.5C663.614 76.5 667.189 80.075 667.189 84.625C667.189 89.175 663.614 92.75 659.064 92.75ZM724.064 109C719.514 109 715.939 105.425 715.939 100.875C715.939 96.325 719.514 92.75 724.064 92.75C728.614 92.75 732.189 96.325 732.189 100.875C732.189 105.425 728.614 109 724.064 109ZM659.064 109C654.514 109 650.939 105.425 650.939 100.875C650.939 96.325 654.514 92.75 659.064 92.75C663.614 92.75 667.189 96.325 667.189 100.875C667.189 105.425 663.614 109 659.064 109ZM740.314 109C735.764 109 732.189 105.425 732.189 100.875C732.189 96.325 735.764 92.75 740.314 92.75C744.864 92.75 748.439 96.325 748.439 100.875C748.439 105.425 744.864 109 740.314 109ZM675.314 109C670.764 109 667.189 105.425 667.189 100.875C667.189 96.325 670.764 92.75 675.314 92.75C679.864 92.75 683.439 96.325 683.439 100.875C683.439 105.425 679.864 109 675.314 109ZM691.564 109C687.014 109 683.439 105.425 683.439 100.875C683.439 96.325 687.014 92.75 691.564 92.75C696.114 92.75 699.689 96.325 699.689 100.875C699.689 105.425 696.114 109 691.564 109ZM707.814 109C703.264 109 699.689 105.425 699.689 100.875C699.689 96.325 703.264 92.75 707.814 92.75C712.364 92.75 715.939 96.325 715.939 100.875C715.939 105.425 712.364 109 707.814 109ZM675.314 125.25C670.764 125.25 667.189 121.675 667.189 117.125C667.189 112.575 670.764 109 675.314 109C679.864 109 683.439 112.575 683.439 117.125C683.439 121.675 679.864 125.25 675.314 125.25ZM659.064 125.25C654.514 125.25 650.939 121.675 650.939 117.125C650.939 112.575 654.514 109 659.064 109C663.614 109 667.189 112.575 667.189 117.125C667.189 121.675 663.614 125.25 659.064 125.25ZM659.064 141.5C654.514 141.5 650.939 137.925 650.939 133.375C650.939 128.825 654.514 125.25 659.064 125.25C663.614 125.25 667.189 128.825 667.189 133.375C667.189 137.925 663.614 141.5 659.064 141.5ZM675.314 141.5C670.764 141.5 667.189 137.925 667.189 133.375C667.189 128.825 670.764 125.25 675.314 125.25C679.864 125.25 683.439 128.825 683.439 133.375C683.439 137.925 679.864 141.5 675.314 141.5ZM740.314 157.75C735.764 157.75 732.189 154.175 732.189 149.625C732.189 145.075 735.764 141.5 740.314 141.5C744.864 141.5 748.439 145.075 748.439 149.625C748.439 154.175 744.864 157.75 740.314 157.75ZM675.314 157.75C670.764 157.75 667.189 154.175 667.189 149.625C667.189 145.075 670.764 141.5 675.314 141.5C679.864 141.5 683.439 145.075 683.439 149.625C683.439 154.175 679.864 157.75 675.314 157.75ZM691.564 157.75C687.014 157.75 683.439 154.175 683.439 149.625C683.439 145.075 687.014 141.5 691.564 141.5C696.114 141.5 699.689 145.075 699.689 149.625C699.689 154.175 696.114 157.75 691.564 157.75ZM707.814 157.75C703.264 157.75 699.689 154.175 699.689 149.625C699.689 145.075 703.264 141.5 707.814 141.5C712.364 141.5 715.939 145.075 715.939 149.625C715.939 154.175 712.364 157.75 707.814 157.75ZM724.064 157.75C719.514 157.75 715.939 154.175 715.939 149.625C715.939 145.075 719.514 141.5 724.064 141.5C728.614 141.5 732.189 145.075 732.189 149.625C732.189 154.175 728.614 157.75 724.064 157.75ZM659.064 157.75C654.514 157.75 650.939 154.175 650.939 149.625C650.939 145.075 654.514 141.5 659.064 141.5C663.614 141.5 667.189 145.075 667.189 149.625C667.189 154.175 663.614 157.75 659.064 157.75ZM740.314 174C735.764 174 732.189 170.425 732.189 165.875C732.189 161.325 735.764 157.75 740.314 157.75C744.864 157.75 748.439 161.325 748.439 165.875C748.439 170.425 744.864 174 740.314 174ZM659.064 174C654.514 174 650.939 170.425 650.939 165.875C650.939 161.325 654.514 157.75 659.064 157.75C663.614 157.75 667.189 161.325 667.189 165.875C667.189 170.425 663.614 174 659.064 174ZM724.064 174C719.514 174 715.939 170.425 715.939 165.875C715.939 161.325 719.514 157.75 724.064 157.75C728.614 157.75 732.189 161.325 732.189 165.875C732.189 170.425 728.614 174 724.064 174ZM707.814 174C703.264 174 699.689 170.425 699.689 165.875C699.689 161.325 703.264 157.75 707.814 157.75C712.364 157.75 715.939 161.325 715.939 165.875C715.939 170.425 712.364 174 707.814 174ZM691.564 174C687.014 174 683.439 170.425 683.439 165.875C683.439 161.325 687.014 157.75 691.564 157.75C696.114 157.75 699.689 161.325 699.689 165.875C699.689 170.425 696.114 174 691.564 174ZM675.314 174C670.764 174 667.189 170.425 667.189 165.875C667.189 161.325 670.764 157.75 675.314 157.75C679.864 157.75 683.439 161.325 683.439 165.875C683.439 170.425 679.864 174 675.314 174ZM659.064 190.25C654.514 190.25 650.939 186.675 650.939 182.125C650.939 177.575 654.514 174 659.064 174C663.614 174 667.189 177.575 667.189 182.125C667.189 186.675 663.614 190.25 659.064 190.25ZM675.314 190.25C670.764 190.25 667.189 186.675 667.189 182.125C667.189 177.575 670.764 174 675.314 174C679.864 174 683.439 177.575 683.439 182.125C683.439 186.675 679.864 190.25 675.314 190.25ZM659.064 206.5C654.514 206.5 650.939 202.925 650.939 198.375C650.939 193.825 654.514 190.25 659.064 190.25C663.614 190.25 667.189 193.825 667.189 198.375C667.189 202.925 663.614 206.5 659.064 206.5ZM675.314 206.5C670.764 206.5 667.189 202.925 667.189 198.375C667.189 193.825 670.764 190.25 675.314 190.25C679.864 190.25 683.439 193.825 683.439 198.375C683.439 202.925 679.864 206.5 675.314 206.5ZM675.314 222.75C670.764 222.75 667.189 219.175 667.189 214.625C667.189 210.075 670.764 206.5 675.314 206.5C679.864 206.5 683.439 210.075 683.439 214.625C683.439 219.175 679.864 222.75 675.314 222.75ZM740.314 222.75C735.764 222.75 732.189 219.175 732.189 214.625C732.189 210.075 735.764 206.5 740.314 206.5C744.864 206.5 748.439 210.075 748.439 214.625C748.439 219.175 744.864 222.75 740.314 222.75ZM724.064 222.75C719.514 222.75 715.939 219.175 715.939 214.625C715.939 210.075 719.514 206.5 724.064 206.5C728.614 206.5 732.189 210.075 732.189 214.625C732.189 219.175 728.614 222.75 724.064 222.75ZM707.814 222.75C703.264 222.75 699.689 219.175 699.689 214.625C699.689 210.075 703.264 206.5 707.814 206.5C712.364 206.5 715.939 210.075 715.939 214.625C715.939 219.175 712.364 222.75 707.814 222.75ZM691.564 222.75C687.014 222.75 683.439 219.175 683.439 214.625C683.439 210.075 687.014 206.5 691.564 206.5C696.114 206.5 699.689 210.075 699.689 214.625C699.689 219.175 696.114 222.75 691.564 222.75ZM659.064 222.75C654.514 222.75 650.939 219.175 650.939 214.625C650.939 210.075 654.514 206.5 659.064 206.5C663.614 206.5 667.189 210.075 667.189 214.625C667.189 219.175 663.614 222.75 659.064 222.75ZM675.314 239C670.764 239 667.189 235.425 667.189 230.875C667.189 226.325 670.764 222.75 675.314 222.75C679.864 222.75 683.439 226.325 683.439 230.875C683.439 235.425 679.864 239 675.314 239ZM691.564 239C687.014 239 683.439 235.425 683.439 230.875C683.439 226.325 687.014 222.75 691.564 222.75C696.114 222.75 699.689 226.325 699.689 230.875C699.689 235.425 696.114 239 691.564 239ZM707.814 239C703.264 239 699.689 235.425 699.689 230.875C699.689 226.325 703.264 222.75 707.814 222.75C712.364 222.75 715.939 226.325 715.939 230.875C715.939 235.425 712.364 239 707.814 239ZM724.064 239C719.514 239 715.939 235.425 715.939 230.875C715.939 226.325 719.514 222.75 724.064 222.75C728.614 222.75 732.189 226.325 732.189 230.875C732.189 235.425 728.614 239 724.064 239ZM740.314 239C735.764 239 732.189 235.425 732.189 230.875C732.189 226.325 735.764 222.75 740.314 222.75C744.864 222.75 748.439 226.325 748.439 230.875C748.439 235.425 744.864 239 740.314 239ZM659.064 239C654.514 239 650.939 235.425 650.939 230.875C650.939 226.325 654.514 222.75 659.064 222.75C663.614 222.75 667.189 226.325 667.189 230.875C667.189 235.425 663.614 239 659.064 239ZM789.064 92.75C784.514 92.75 780.939 89.175 780.939 84.625C780.939 80.075 784.514 76.5 789.064 76.5C793.614 76.5 797.189 80.075 797.189 84.625C797.189 89.175 793.614 92.75 789.064 92.75ZM772.814 92.75C768.264 92.75 764.689 89.175 764.689 84.625C764.689 80.075 768.264 76.5 772.814 76.5C777.364 76.5 780.939 80.075 780.939 84.625C780.939 89.175 777.364 92.75 772.814 92.75ZM886.564 92.75C882.014 92.75 878.439 89.175 878.439 84.625C878.439 80.075 882.014 76.5 886.564 76.5C891.114 76.5 894.689 80.075 894.689 84.625C894.689 89.175 891.114 92.75 886.564 92.75ZM870.314 92.75C865.764 92.75 862.189 89.175 862.189 84.625C862.189 80.075 865.764 76.5 870.314 76.5C874.864 76.5 878.439 80.075 878.439 84.625C878.439 89.175 874.864 92.75 870.314 92.75ZM789.064 109C784.514 109 780.939 105.425 780.939 100.875C780.939 96.325 784.514 92.75 789.064 92.75C793.614 92.75 797.189 96.325 797.189 100.875C797.189 105.425 793.614 109 789.064 109ZM805.314 109C800.764 109 797.189 105.425 797.189 100.875C797.189 96.325 800.764 92.75 805.314 92.75C809.864 92.75 813.439 96.325 813.439 100.875C813.439 105.425 809.864 109 805.314 109ZM772.814 109C768.264 109 764.689 105.425 764.689 100.875C764.689 96.325 768.264 92.75 772.814 92.75C777.364 92.75 780.939 96.325 780.939 100.875C780.939 105.425 777.364 109 772.814 109ZM870.314 109C865.764 109 862.189 105.425 862.189 100.875C862.189 96.325 865.764 92.75 870.314 92.75C874.864 92.75 878.439 96.325 878.439 100.875C878.439 105.425 874.864 109 870.314 109ZM886.564 109C882.014 109 878.439 105.425 878.439 100.875C878.439 96.325 882.014 92.75 886.564 92.75C891.114 92.75 894.689 96.325 894.689 100.875C894.689 105.425 891.114 109 886.564 109ZM886.564 125.25C882.014 125.25 878.439 121.675 878.439 117.125C878.439 112.575 882.014 109 886.564 109C891.114 109 894.689 112.575 894.689 117.125C894.689 121.675 891.114 125.25 886.564 125.25ZM789.064 125.25C784.514 125.25 780.939 121.675 780.939 117.125C780.939 112.575 784.514 109 789.064 109C793.614 109 797.189 112.575 797.189 117.125C797.189 121.675 793.614 125.25 789.064 125.25ZM821.564 125.25C817.014 125.25 813.439 121.675 813.439 117.125C813.439 112.575 817.014 109 821.564 109C826.114 109 829.689 112.575 829.689 117.125C829.689 121.675 826.114 125.25 821.564 125.25ZM805.314 125.25C800.764 125.25 797.189 121.675 797.189 117.125C797.189 112.575 800.764 109 805.314 109C809.864 109 813.439 112.575 813.439 117.125C813.439 121.675 809.864 125.25 805.314 125.25ZM772.814 125.25C768.264 125.25 764.689 121.675 764.689 117.125C764.689 112.575 768.264 109 772.814 109C777.364 109 780.939 112.575 780.939 117.125C780.939 121.675 777.364 125.25 772.814 125.25ZM870.314 125.25C865.764 125.25 862.189 121.675 862.189 117.125C862.189 112.575 865.764 109 870.314 109C874.864 109 878.439 112.575 878.439 117.125C878.439 121.675 874.864 125.25 870.314 125.25ZM789.064 141.5C784.514 141.5 780.939 137.925 780.939 133.375C780.939 128.825 784.514 125.25 789.064 125.25C793.614 125.25 797.189 128.825 797.189 133.375C797.189 137.925 793.614 141.5 789.064 141.5ZM805.314 141.5C800.764 141.5 797.189 137.925 797.189 133.375C797.189 128.825 800.764 125.25 805.314 125.25C809.864 125.25 813.439 128.825 813.439 133.375C813.439 137.925 809.864 141.5 805.314 141.5ZM886.564 141.5C882.014 141.5 878.439 137.925 878.439 133.375C878.439 128.825 882.014 125.25 886.564 125.25C891.114 125.25 894.689 128.825 894.689 133.375C894.689 137.925 891.114 141.5 886.564 141.5ZM870.314 141.5C865.764 141.5 862.189 137.925 862.189 133.375C862.189 128.825 865.764 125.25 870.314 125.25C874.864 125.25 878.439 128.825 878.439 133.375C878.439 137.925 874.864 141.5 870.314 141.5ZM821.564 141.5C817.014 141.5 813.439 137.925 813.439 133.375C813.439 128.825 817.014 125.25 821.564 125.25C826.114 125.25 829.689 128.825 829.689 133.375C829.689 137.925 826.114 141.5 821.564 141.5ZM772.814 141.5C768.264 141.5 764.689 137.925 764.689 133.375C764.689 128.825 768.264 125.25 772.814 125.25C777.364 125.25 780.939 128.825 780.939 133.375C780.939 137.925 777.364 141.5 772.814 141.5ZM837.814 141.5C833.264 141.5 829.689 137.925 829.689 133.375C829.689 128.825 833.264 125.25 837.814 125.25C842.364 125.25 845.939 128.825 845.939 133.375C845.939 137.925 842.364 141.5 837.814 141.5ZM821.564 157.75C817.014 157.75 813.439 154.175 813.439 149.625C813.439 145.075 817.014 141.5 821.564 141.5C826.114 141.5 829.689 145.075 829.689 149.625C829.689 154.175 826.114 157.75 821.564 157.75ZM854.064 157.75C849.514 157.75 845.939 154.175 845.939 149.625C845.939 145.075 849.514 141.5 854.064 141.5C858.614 141.5 862.189 145.075 862.189 149.625C862.189 154.175 858.614 157.75 854.064 157.75ZM837.814 157.75C833.264 157.75 829.689 154.175 829.689 149.625C829.689 145.075 833.264 141.5 837.814 141.5C842.364 141.5 845.939 145.075 845.939 149.625C845.939 154.175 842.364 157.75 837.814 157.75ZM886.564 157.75C882.014 157.75 878.439 154.175 878.439 149.625C878.439 145.075 882.014 141.5 886.564 141.5C891.114 141.5 894.689 145.075 894.689 149.625C894.689 154.175 891.114 157.75 886.564 157.75ZM870.314 157.75C865.764 157.75 862.189 154.175 862.189 149.625C862.189 145.075 865.764 141.5 870.314 141.5C874.864 141.5 878.439 145.075 878.439 149.625C878.439 154.175 874.864 157.75 870.314 157.75ZM789.064 157.75C784.514 157.75 780.939 154.175 780.939 149.625C780.939 145.075 784.514 141.5 789.064 141.5C793.614 141.5 797.189 145.075 797.189 149.625C797.189 154.175 793.614 157.75 789.064 157.75ZM772.814 157.75C768.264 157.75 764.689 154.175 764.689 149.625C764.689 145.075 768.264 141.5 772.814 141.5C777.364 141.5 780.939 145.075 780.939 149.625C780.939 154.175 777.364 157.75 772.814 157.75ZM870.314 174C865.764 174 862.189 170.425 862.189 165.875C862.189 161.325 865.764 157.75 870.314 157.75C874.864 157.75 878.439 161.325 878.439 165.875C878.439 170.425 874.864 174 870.314 174ZM854.064 174C849.514 174 845.939 170.425 845.939 165.875C845.939 161.325 849.514 157.75 854.064 157.75C858.614 157.75 862.189 161.325 862.189 165.875C862.189 170.425 858.614 174 854.064 174ZM837.814 174C833.264 174 829.689 170.425 829.689 165.875C829.689 161.325 833.264 157.75 837.814 157.75C842.364 157.75 845.939 161.325 845.939 165.875C845.939 170.425 842.364 174 837.814 174ZM886.564 174C882.014 174 878.439 170.425 878.439 165.875C878.439 161.325 882.014 157.75 886.564 157.75C891.114 157.75 894.689 161.325 894.689 165.875C894.689 170.425 891.114 174 886.564 174ZM789.064 174C784.514 174 780.939 170.425 780.939 165.875C780.939 161.325 784.514 157.75 789.064 157.75C793.614 157.75 797.189 161.325 797.189 165.875C797.189 170.425 793.614 174 789.064 174ZM772.814 174C768.264 174 764.689 170.425 764.689 165.875C764.689 161.325 768.264 157.75 772.814 157.75C777.364 157.75 780.939 161.325 780.939 165.875C780.939 170.425 777.364 174 772.814 174ZM772.814 190.25C768.264 190.25 764.689 186.675 764.689 182.125C764.689 177.575 768.264 174 772.814 174C777.364 174 780.939 177.575 780.939 182.125C780.939 186.675 777.364 190.25 772.814 190.25ZM886.564 190.25C882.014 190.25 878.439 186.675 878.439 182.125C878.439 177.575 882.014 174 886.564 174C891.114 174 894.689 177.575 894.689 182.125C894.689 186.675 891.114 190.25 886.564 190.25ZM870.314 190.25C865.764 190.25 862.189 186.675 862.189 182.125C862.189 177.575 865.764 174 870.314 174C874.864 174 878.439 177.575 878.439 182.125C878.439 186.675 874.864 190.25 870.314 190.25ZM854.064 190.25C849.514 190.25 845.939 186.675 845.939 182.125C845.939 177.575 849.514 174 854.064 174C858.614 174 862.189 177.575 862.189 182.125C862.189 186.675 858.614 190.25 854.064 190.25ZM789.064 190.25C784.514 190.25 780.939 186.675 780.939 182.125C780.939 177.575 784.514 174 789.064 174C793.614 174 797.189 177.575 797.189 182.125C797.189 186.675 793.614 190.25 789.064 190.25ZM772.814 206.5C768.264 206.5 764.689 202.925 764.689 198.375C764.689 193.825 768.264 190.25 772.814 190.25C777.364 190.25 780.939 193.825 780.939 198.375C780.939 202.925 777.364 206.5 772.814 206.5ZM886.564 206.5C882.014 206.5 878.439 202.925 878.439 198.375C878.439 193.825 882.014 190.25 886.564 190.25C891.114 190.25 894.689 193.825 894.689 198.375C894.689 202.925 891.114 206.5 886.564 206.5ZM870.314 206.5C865.764 206.5 862.189 202.925 862.189 198.375C862.189 193.825 865.764 190.25 870.314 190.25C874.864 190.25 878.439 193.825 878.439 198.375C878.439 202.925 874.864 206.5 870.314 206.5ZM789.064 206.5C784.514 206.5 780.939 202.925 780.939 198.375C780.939 193.825 784.514 190.25 789.064 190.25C793.614 190.25 797.189 193.825 797.189 198.375C797.189 202.925 793.614 206.5 789.064 206.5ZM772.814 222.75C768.264 222.75 764.689 219.175 764.689 214.625C764.689 210.075 768.264 206.5 772.814 206.5C777.364 206.5 780.939 210.075 780.939 214.625C780.939 219.175 777.364 222.75 772.814 222.75ZM886.564 222.75C882.014 222.75 878.439 219.175 878.439 214.625C878.439 210.075 882.014 206.5 886.564 206.5C891.114 206.5 894.689 210.075 894.689 214.625C894.689 219.175 891.114 222.75 886.564 222.75ZM870.314 222.75C865.764 222.75 862.189 219.175 862.189 214.625C862.189 210.075 865.764 206.5 870.314 206.5C874.864 206.5 878.439 210.075 878.439 214.625C878.439 219.175 874.864 222.75 870.314 222.75ZM789.064 222.75C784.514 222.75 780.939 219.175 780.939 214.625C780.939 210.075 784.514 206.5 789.064 206.5C793.614 206.5 797.189 210.075 797.189 214.625C797.189 219.175 793.614 222.75 789.064 222.75ZM772.814 239C768.264 239 764.689 235.425 764.689 230.875C764.689 226.325 768.264 222.75 772.814 222.75C777.364 222.75 780.939 226.325 780.939 230.875C780.939 235.425 777.364 239 772.814 239ZM789.064 239C784.514 239 780.939 235.425 780.939 230.875C780.939 226.325 784.514 222.75 789.064 222.75C793.614 222.75 797.189 226.325 797.189 230.875C797.189 235.425 793.614 239 789.064 239ZM870.314 239C865.764 239 862.189 235.425 862.189 230.875C862.189 226.325 865.764 222.75 870.314 222.75C874.864 222.75 878.439 226.325 878.439 230.875C878.439 235.425 874.864 239 870.314 239ZM886.564 239C882.014 239 878.439 235.425 878.439 230.875C878.439 226.325 882.014 222.75 886.564 222.75C891.114 222.75 894.689 226.325 894.689 230.875C894.689 235.425 891.114 239 886.564 239Z" fill="white"/>
<path d="M905.392 65.0464V49.9268H899.671V46.2476H915.221V49.9268H909.5V65.0464H905.392ZM917.745 65.0464V46.2476H922.499L927.896 58.8428H928.004L933.402 46.2476H938.155V65.0464H934.503V53.042H932.596L936.705 46.7578L929.239 65.0464H926.661L919.195 46.7578L923.304 53.042H921.397V65.0464H917.745Z" fill="white"/>
<defs>
<clipPath id="clip0_1_27">
<rect width="268.939" height="256.759" fill="white" transform="translate(0 21.1205)"/>
</clipPath>
</defs>
</svg>
