<svg width="58" height="55" viewBox="0 0 58 55" fill="none" xmlns="http://www.w3.org/2000/svg">
<mask id="mask0_15_453" style="mask-type:luminance" maskUnits="userSpaceOnUse" x="0" y="0" width="58" height="55">
<path d="M57.1603 0H0V54.9585H57.1603V0Z" fill="white"/>
</mask>
<g mask="url(#mask0_15_453)">
<path d="M5.16284 7.03143C0.491431 13.3092 -1.25012 24.5145 5.67038 30.0525C14.3157 36.9705 28.413 28.5899 28.2606 27.8484C28.3733 28.3962 13.6056 29.9369 11.0007 26.8688C5.47272 20.3574 19.8204 3.04823 16.3312 0.419094C14.4625 -0.988906 8.4825 2.57048 5.16284 7.03143Z" fill="white" stroke="white" stroke-miterlimit="10"/>
<path d="M52.5828 47.9271C57.2542 41.6493 58.9958 30.444 52.0753 24.9059C43.43 17.9879 29.3327 26.3685 29.4851 27.11C29.6279 27.8043 42.5312 23.1264 46.745 28.0897C52.2731 34.601 37.9254 51.9101 41.4147 54.5392C43.2833 55.9472 49.2632 52.3878 52.5828 47.9271Z" fill="white" stroke="white" stroke-miterlimit="10"/>
<path d="M7.01448 49.742C13.3945 54.4142 24.9577 56.3912 30.8789 49.8629C38.2755 41.7078 29.9669 27.8883 29.1945 28.0156C28.4714 28.1348 32.9756 40.7045 27.7218 44.6372C20.8291 49.7966 3.27654 35.4987 0.460181 38.7944C-1.04821 40.5594 2.48079 46.4215 7.0147 49.7418L7.01448 49.742Z" fill="white" stroke="white" stroke-miterlimit="10"/>
<path d="M49.8064 4.49475C43.2672 0.0318728 31.6417 -1.5692 25.9514 5.14738C18.8428 13.5376 27.6279 27.0802 28.3954 26.9278C29.114 26.7853 24.1745 14.3685 29.2887 10.2676C35.9977 4.88774 54.0383 18.6089 56.7384 15.2234C58.1845 13.4104 54.4534 7.66628 49.8064 4.49475Z" fill="white" stroke="white" stroke-miterlimit="10"/>
</g>
</svg>
